# xmcd CD database file
#
# Track frame offsets:
#	150
#	19930
#	44090
#	66702
#	85152
#	102185
#	121367
#	138380
#	165575
#
# Disc length: 2525 seconds
#
# Revision: 0
# Processed by: cddbd v1.5.1PL0 Copyright (c) Steve Scherf et al.
# Submitted via: CDex 1.51
#
DISCID=7f09db09
DTITLE=Jimmy Raney - Jimmy Raney Live in Tokyo
DYEAR=1977
DGENRE=Jazz
TTITLE0=Just Friends
TTITLE1=How About You
TTITLE2=Darn That Dream
TTITLE3=Anthropology
TTITLE4=Watch What Happens
TTITLE5=Autumn Leaves
TTITLE6=Stella by Starlight
TTITLE7=Here's That Rainy Day
TTITLE8=Cherokee
EXTD=YEAR: 1977
EXTT0=
EXTT1=
EXTT2=
EXTT3=
EXTT4=
EXTT5=
EXTT6=
EXTT7=
EXTT8=
PLAYORDER=
